<?xml version="1.0" standalone="no"?>
<!DOCTYPE svg PUBLIC "-//W3C//DTD SVG 20010904//EN"
 "http://www.w3.org/TR/2001/REC-SVG-20010904/DTD/svg10.dtd">
<svg version="1.0" xmlns="http://www.w3.org/2000/svg"
 width="401.000000pt" height="401.000000pt" viewBox="0 0 401.000000 401.000000"
 preserveAspectRatio="xMidYMid meet">
<metadata>
Created by potrace 1.11, written by Peter Selinger 2001-2013
</metadata>
<g transform="translate(0.000000,401.000000) scale(0.100000,-0.100000)"
fill="#000000" stroke="none">
<path d="M2114 3730 c-37 -8 -54 -18 -54 -31 0 -6 4 -8 8 -5 5 3 37 8 73 12
62 6 105 23 64 25 -11 0 -29 2 -40 3 -11 1 -34 -1 -51 -4z"/>
<path d="M2012 3588 c-56 -12 -126 -78 -141 -133 -6 -22 -8 -63 -4 -92 5 -50
4 -54 -30 -86 -19 -19 -40 -45 -47 -57 -16 -30 -20 -134 -7 -202 l10 -57 -50
-83 c-27 -46 -65 -110 -83 -143 -38 -68 -45 -75 -80 -75 -38 -1 -145 -50 -256
-117 -196 -119 -214 -126 -349 -133 -120 -6 -161 -18 -199 -56 -30 -29 -5 -41
71 -33 164 19 183 9 183 -99 l1 -67 25 30 c14 17 38 55 54 86 33 64 76 111
142 157 74 51 261 132 303 132 17 0 9 -27 -54 -168 -66 -150 -54 -151 64 -4
86 105 116 134 100 96 -17 -42 -35 -121 -35 -154 0 -24 -6 -38 -19 -45 -168
-88 -306 -220 -411 -395 -25 -41 -66 -97 -92 -124 -27 -28 -48 -52 -48 -55 0
-3 -23 -30 -50 -60 -67 -71 -110 -126 -110 -140 0 -25 33 -8 93 49 76 71 113
93 137 80 19 -10 40 -79 40 -132 0 -79 23 -99 53 -49 12 21 19 61 23 138 7
152 21 241 45 291 33 67 163 198 263 264 86 56 106 63 106 32 0 -9 16 -49 35
-91 l35 -76 -24 -76 c-56 -180 -85 -489 -60 -659 15 -107 49 -175 164 -327 55
-74 88 -126 84 -135 -23 -61 -36 -144 -40 -260 -7 -188 -9 -200 -39 -200 -34
0 -30 1 -76 -15 -46 -17 -235 -150 -244 -173 -10 -27 4 -25 84 11 102 47 200
73 281 76 36 1 70 8 77 14 13 13 21 99 24 260 2 93 19 220 32 233 3 3 36 -2
74 -12 72 -18 248 -25 293 -11 23 7 27 4 48 -49 31 -76 68 -231 83 -348 l12
-96 46 -1 c305 -6 371 -5 371 2 0 14 -127 69 -197 85 -88 20 -96 25 -104 60
-25 113 -35 148 -62 214 -17 41 -43 96 -58 122 l-28 48 79 79 c134 134 158
209 167 522 l6 215 -41 82 c-44 87 -123 215 -202 327 l-50 70 0 93 0 92 33 0
c69 0 280 -165 361 -283 33 -48 39 -64 45 -135 4 -54 12 -87 24 -100 21 -24
22 -81 1 -96 -19 -15 -21 -152 -4 -321 15 -149 25 -184 57 -196 43 -16 248 16
254 41 1 3 3 23 4 46 3 50 19 141 56 310 l28 131 -49 149 c-28 81 -50 156 -50
166 0 27 -35 30 -145 13 l-100 -15 -33 37 c-144 164 -286 285 -417 356 -78 41
-80 43 -96 97 -9 30 -20 70 -24 88 l-7 32 57 0 c76 0 152 -21 291 -80 216 -91
333 -177 398 -294 36 -64 70 -106 86 -106 13 0 13 0 -5 50 -24 68 -20 112 15
145 26 25 34 27 74 22 25 -4 73 -18 105 -32 97 -41 105 -32 35 40 -26 26 -72
59 -103 74 -49 23 -68 26 -161 26 l-105 0 -75 46 c-94 58 -180 102 -267 134
-82 31 -269 81 -338 89 -36 5 -56 14 -72 32 -13 14 -23 28 -23 32 1 4 18 19
39 33 82 57 112 126 104 239 -4 62 -4 62 37 97 71 61 88 121 55 200 -30 74
-87 111 -199 130 -30 4 -40 12 -47 33 -24 67 -161 119 -257 98z"/>
<path d="M2510 3588 c0 -14 74 -79 78 -68 6 15 -36 67 -58 73 -11 3 -20 1 -20
-5z"/>
</g>
</svg>
