<?xml version="1.0" encoding="UTF-8"?>
<svg width="200px" height="200px" viewBox="0 0 200 200" version="1.1" xmlns="http://www.w3.org/2000/svg" xmlns:xlink="http://www.w3.org/1999/xlink">
    <!-- Generator: Sketch 48.2 (47327) - http://www.bohemiancoding.com/sketch -->
    <title>bednet</title>
    <desc>Created with Sketch.</desc>
    <defs></defs>
    <g id="Page-1" stroke="none" stroke-width="1" fill="none" fill-rule="evenodd" stroke-linecap="round" stroke-linejoin="round">
        <g id="bednet" transform="translate(0.000000, 11.000000)">
            <path d="M186.272727,70.1176452 L188.735885,69.1290753" id="STROKE_D3440E5C-33FF-4D35-80C5-2E62898A2753" stroke="#9BC1E6" stroke-width="3.85837321"></path>
            <path d="M190.195215,68.9319355 C187.580223,69.9858996 185.144179,71.1779892 182.887081,72.5082043 C180.629984,73.8390573 177.825837,75.8423548 174.474641,78.5180968 C171.122807,81.1938387 168.541627,82.9942545 166.7311,83.9193441 C164.919936,84.8444337 163.183413,85.8263047 161.521531,86.864957 C159.859011,87.9042473 158.630622,88.8864373 157.836364,89.8115269 L156.645933,91.1982043" id="STROKE_0DA19D35-27F3-4FA8-A9F6-585C61B2CC32" stroke="#9BC1E6" stroke-width="3.85837321"></path>
            <path d="M194.786603,67.6246882 C194.604147,68.0757491 193.766188,68.8410215 192.272727,69.9205054 C190.779266,70.9999892 188.699841,72.6938602 186.03445,75.0021183 C183.368421,77.3103763 180.359809,79.6897706 177.008612,82.1403011 C173.656778,84.5908315 171.511324,86.0795878 170.572249,86.6065699 L169.163636,87.398" id="STROKE_14E53949-9303-46FB-96EE-0C8635C6282B" stroke="#9BC1E6" stroke-width="3.85837321"></path>
            <path d="M194.786603,68.5740215 C191.117703,70.9205591 188.299841,72.5943333 186.333014,73.5953441 C184.366826,74.5963548 180.743541,76.1980358 175.463158,78.4003871 C170.182137,80.6027384 167.099203,81.9342294 166.214354,82.3948602 L164.886124,83.0867634" id="STROKE_157800C9-58BF-449A-83C2-05FB01BCFCFE" stroke="#9BC1E6" stroke-width="3.85837321"></path>
            <path d="M192.171292,71.7751505 C187.130781,73.9896237 183.264115,75.8748925 180.571292,77.430957 C177.878469,78.9870215 174.189155,81.3412151 169.503349,84.4935376 C164.816906,87.6458602 160.248804,90.9678889 155.799043,94.4596237 L149.125359,99.6981828" id="STROKE_7AB59C00-A901-42CB-8089-2BF4817A176F" stroke="#9BC1E6" stroke-width="3.86220096"></path>
            <path d="M186.191388,74.6260215 C184.927592,75.4975197 182.994896,76.5527599 180.393301,77.7917419 C177.792344,79.031362 174.200957,80.9813871 169.619139,83.6418172 C165.037959,86.3028853 159.916108,89.4338351 154.253589,93.0346667 C148.591069,96.6354982 142.915152,100.202197 137.225837,103.734763 L128.691866,109.033613" id="STROKE_A1606A6A-A07B-430B-B9F3-C74488326094" stroke="#9BC1E6" stroke-width="3.9291866"></path>
            <path d="M166.031579,88.0286559 C159.010845,91.6167276 152.89378,94.4851434 147.680383,96.6339032 C142.467624,98.7826631 138.335885,100.52247 135.285167,101.853323 C132.233812,103.183538 128.451356,104.916645 123.937799,107.052645 C119.424242,109.189283 116.025518,110.856677 113.741627,112.054828 L110.315789,113.853011" id="STROKE_7F0D2BBB-5C0E-435F-9F49-0BCDB08542B6" stroke="#9BC1E6" stroke-width="3.94162679"></path>
            <path d="M160.892823,86.8879247 C158.142584,87.9674086 155.487081,89.1534373 152.926316,90.4460108 C150.364912,91.7385842 147.090909,93.4656308 143.104306,95.6271505 C139.117703,97.7886703 134.273046,100.503968 128.570335,103.773043 C122.866986,107.04148 115.679107,111.061473 107.006699,115.833022 L93.9971292,122.991301" id="STROKE_C1CF4CF7-3C0C-49A3-A0AD-B4A04E28EC38" stroke="#9BC1E6" stroke-width="4.10047847"></path>
            <path d="M151.425837,92.734172 C149.756938,93.0538065 146.711324,94.4717455 142.288995,96.9879892 C137.866029,99.504233 133.213716,102.225591 128.332057,105.152065 C123.449761,108.079176 118.604785,110.841366 113.797129,113.438634 C108.989474,116.035903 105.291547,117.966789 102.703349,119.23129 C100.115789,120.495792 97.9113238,121.623444 96.0899522,122.614247 L93.3588517,124.100452" id="STROKE_92818143-D406-4675-95DE-52AFEE91AABB" stroke="#9BC1E6" stroke-width="3.9645933"></path>
            <path d="M134.113876,102.746194 C133.296651,103.613226 130.853907,105.186835 126.785646,107.467022 C122.718022,109.747846 118.690909,111.962638 114.704306,114.111398 C110.717703,116.260158 105.866029,118.818509 100.149282,121.786452 C94.4325359,124.753756 91.199362,126.474104 90.4497608,126.947495 L89.3244019,127.658538" id="STROKE_75C5B08F-E163-4B94-A7EE-375DF0AFE688" stroke="#9BC1E6" stroke-width="3.87177033"></path>
            <path d="M128.367464,107.763688 C126.759171,109.213208 123.505582,110.907398 118.606699,112.846258 C113.707815,114.78448 109.140032,116.676129 104.903349,118.521204 C100.666667,120.365642 97.2408293,121.90129 94.6258373,123.128151 C92.0108453,124.354373 88.1355662,126.365007 83,129.160054 L75.2966507,133.352624" id="STROKE_54B1EE27-A9B7-4020-B8CF-CB78CF851379" stroke="#9BC1E6" stroke-width="3.86411483"></path>
            <path d="M118.545455,114.096086 C118.099522,115.018624 116.555662,116.000814 113.913876,117.042656 C111.271451,118.08386 108.367464,119.341982 105.201914,120.817022 C102.036364,122.291423 99.3438596,123.621638 97.1244019,124.807667 C94.9043062,125.993695 92.1116427,127.747219 88.7464115,130.068237 C85.3818182,132.389892 82.5961722,134.222208 80.3894737,135.565183 C78.1834131,136.908158 76.7578947,137.672154 76.1129187,137.857172 L75.1444976,138.134699" id="STROKE_24CFCA7A-A72D-41D6-9857-DD44C47101FE" stroke="#9BC1E6" stroke-width="3.85837321"></path>
            <path d="M107.457416,123.348258 C107.220734,122.978222 105.749282,123.505204 103.043062,124.929204 C100.336842,126.353842 97.8551834,127.586763 95.5980861,128.627968 C93.3416268,129.669172 91.1964912,130.558534 89.1626794,131.296054 C87.1282297,132.033573 84.3811802,132.877638 80.9215311,133.828247 L75.7320574,135.253204" id="STROKE_355BF562-CAC1-4A51-90BB-D7D3FADE9F50" stroke="#9BC1E6" stroke-width="3.85837321"></path>
            <path d="M97.8794258,125.202903 C93.9400319,127.605584 90.5444976,129.41876 87.692823,130.64243 C84.8411483,131.866738 82.4389155,132.750039 80.4861244,133.292333 C78.5333333,133.834627 75.7814992,134.256341 72.230622,134.557473 C68.6797448,134.859244 66.1323764,134.785875 64.5885167,134.337366 L62.2727273,133.664602" id="STROKE_58A338E2-84BB-4BEB-B7E4-4B6AF7314D84" stroke="#9BC1E6" stroke-width="3.85837321"></path>
            <path d="M84.6822967,130.859667 C81.5129187,132.466133 77.2947368,133.460763 72.0277512,133.843559 C66.7607656,134.225717 63.1371611,134.397975 61.1569378,134.360333 C59.1773525,134.322054 56.722807,133.860785 53.7933014,132.976527 L49.4,131.65014" id="STROKE_CB6EEA08-2AAC-4908-B5C1-D1768C395ED7" stroke="#9BC1E6" stroke-width="3.85837321"></path>
            <path d="M77.4354067,135.131667 C72.6041467,135.446197 69.2121212,135.413341 67.2593301,135.033097 C65.3065391,134.652853 63.5240829,134.191584 61.9119617,133.64929 C60.3004785,133.106996 58.400319,132.189563 56.2114833,130.896989 L52.9272727,128.959086" id="STROKE_BB4D4A4F-DD9C-494B-AE94-664360657E41" stroke="#9BC1E6" stroke-width="3.85837321"></path>
            <path d="M74.6277512,136.637011 C69.9247209,138.293878 66.7757576,138.865201 65.1808612,138.350978 C63.5866029,137.836756 61.7521531,137.356667 59.677512,136.91071 C57.6028708,136.464753 55.8730463,135.904595 54.4880383,135.230237 L52.4105263,134.219656" id="STROKE_A370C6F4-F813-482B-B2DB-DBD6F29B19FA" stroke="#9BC1E6" stroke-width="3.85837321"></path>
            <path d="M64.4516746,137.82272 C62.9716108,137.34614 61.7435407,137.299247 60.7674641,137.682043 C59.7907496,138.064839 58.5422648,138.137251 57.0220096,137.89928 C55.5017544,137.66067 53.4424242,136.394892 50.8440191,134.101946 C48.246252,131.808362 46.7023923,130.549921 46.2124402,130.326624 L45.477512,129.992634" id="STROKE_7A9F5CAF-E5AF-479F-8880-CD96B03FA161" stroke="#9BC1E6" stroke-width="3.85837321"></path>
            <path d="M66.2248804,137.82272 C66.2051037,138.400742 65.3486443,138.578104 63.6555024,138.354806 C61.9629984,138.132147 60.1808612,137.683638 58.3090909,137.00928 C56.4373206,136.335559 51.7444976,133.810384 44.230622,129.433753 C36.7167464,125.05776 32.2401914,122.329703 30.8009569,121.249581 L28.6421053,119.630355" id="STROKE_3031C26D-979E-4707-BB5E-B09D1B119529" stroke="#9BC1E6" stroke-width="3.85837321"></path>
            <path d="M47.9301435,130.942925 C48.1668262,131.307857 46.3052632,130.337151 42.3454545,128.030806 C38.3856459,125.7251 35.6,124.189452 33.9885167,123.42386 C32.3770335,122.658907 29.1489633,121.255323 24.3043062,119.213108 C19.4590112,117.170254 16.1192982,115.806864 14.2851675,115.122935 L11.5330144,114.096086" id="STROKE_2B3EF5C5-4F44-49A4-91C7-D2DDA4A5DA09" stroke="#9BC1E6" stroke-width="3.85837321"></path>
            <path d="M7.93492823,110.926538 C11.96874,113.881082 15.8743222,116.584896 19.6516746,119.037978 C23.4290271,121.491061 26.9681021,123.606964 30.2688995,125.385688 C33.569697,127.164412 36.4347687,128.574695 38.8641148,129.616538 C41.292823,130.657742 42.7572568,131.501487 43.2574163,132.147774 L44.0076555,133.117204" id="STROKE_87C9CA05-68D5-4A47-A1DA-B6C3BCD07549" stroke="#9BC1E6" stroke-width="3.85837321"></path>
            <path d="M8.80669856,111.998366 C11.1244019,113.02681 13.6701754,114.252075 16.4440191,115.674161 C19.2178628,117.095609 21.4424242,118.326935 23.1177033,119.36814 C24.7936204,120.409982 25.4864434,120.930903 25.1961722,120.930903 C24.9052632,120.930903 23.8038278,120.450495 21.891866,119.489677 L19.0229665,118.049409" id="STROKE_0E754EF3-DE60-4865-81C3-24B3732429BB" stroke="#9BC1E6" stroke-width="3.85837321"></path>
            <path d="M6.98181818,112.431882 C7.27272727,112.168391 10.1834131,113.519022 15.7138756,116.483774 C21.2443381,119.448527 25.4947368,121.616427 28.4650718,122.987473 C31.4347687,124.357882 35.2169059,125.868011 39.8114833,127.51786 C44.4060606,129.16771 47.3776715,130.340978 48.7263158,131.037667 C50.0743222,131.734993 50.6283892,132.157025 50.3885167,132.303763 C50.1486443,132.450502 49.184051,132.088122 47.4947368,131.216624 L44.9607656,129.909376" id="STROKE_DBAA5A76-D3CE-41EC-AC04-F0DFF238743F" stroke="#9BC1E6" stroke-width="3.85837321"></path>
            <path d="M21.476555,116.703882 C24.0641148,117.124319 26.0047847,117.604409 27.2985646,118.144151 C28.5929825,118.683892 30.8315789,119.758591 34.0143541,121.368247 C37.1964912,122.977265 40.1728868,124.394885 42.9435407,125.621108 C45.7141946,126.847968 48.2937799,127.889491 50.6822967,128.745677 C53.0708134,129.602502 55.4542265,130.590753 57.8325359,131.71043 C60.2114833,132.830746 61.5712919,133.687251 61.9119617,134.279946 C62.2532695,134.87328 61.6318979,134.926552 60.0478469,134.439763 L57.6708134,133.709581" id="STROKE_C50DC44E-ECF5-4124-8239-FD44D46C5DD4" stroke="#9BC1E6" stroke-width="3.85837321"></path>
            <path d="M26.5033493,117.334538 C27.8749601,117.441082 30.0271132,118.423272 32.9598086,120.281108 C35.892504,122.138305 38.5464115,123.71957 40.9215311,125.024903 C43.2966507,126.329599 45.3945774,127.450871 47.215311,128.38872 C49.0366826,129.325932 51.3476874,130.420728 54.1483254,131.673108 L58.3502392,133.55072" id="STROKE_B4513B42-A496-4AEA-AA81-D903094CC71C" stroke="#9BC1E6" stroke-width="3.85837321"></path>
            <path d="M7.45837321,110.926538 C7.1138756,110.16605 6.83508772,109.778151 6.62200957,109.762839 C6.40956938,109.747527 6.46889952,109.871935 6.8,110.136065 C7.13110048,110.399556 7.62073365,110.590634 8.26889952,110.709301 C8.91770335,110.828606 9.56491228,111.073276 10.2105263,111.443312 C10.8555024,111.813348 10.8484848,111.774111 10.1894737,111.325602 L9.20191388,110.652839" id="STROKE_0B6FFE76-0ACD-4808-A6A1-5DD2A69FFFE2" stroke="#9BC1E6" stroke-width="3.85837321"></path>
            <path d="M186.749282,63.1536344 C178.748644,66.8488889 172.477831,69.8822258 167.936842,72.2536452 C163.395853,74.6257025 163.488676,74.7906237 168.215311,72.7484086 C172.941946,70.7055556 177.489633,68.5832724 181.858373,66.3815591 C186.227113,64.1792079 187.666348,63.5785376 186.176077,64.5795484 C184.686443,65.5805591 181.029346,67.5443011 175.204785,70.4707742 C169.379585,73.3978853 169.386284,73.5436667 175.22488,70.9081183 C181.062839,68.2725699 181.037321,68.7478746 175.148325,72.3340323 C169.25933,75.919552 170.28134,75.4911398 178.214354,71.0487957 C186.147368,66.6064516 187.110367,65.5180358 181.103349,67.7835484 C175.096332,70.0490609 170.285167,72.3879427 166.669856,74.8001935 C163.055183,77.2130824 163.254545,77.8405484 167.267943,76.6825914 C171.281978,75.5239964 172.430622,75.4123477 170.713876,76.3476452 C168.997767,77.2829427 166.192026,77.9416703 162.296651,78.323828 C158.401276,78.7066237 155.627432,78.3774194 153.97512,77.3362151 C152.322807,76.2943728 152.917384,75.9977061 155.758852,76.4462151 C158.600319,76.894724 159.980542,77.4016093 159.899522,77.966871 C159.818501,78.5321326 158.642743,78.8476201 156.372249,78.9133333 C154.101754,78.9790466 151.699522,78.6370824 149.16555,77.8874409 C146.631579,77.1371613 143.430303,75.7533548 139.561722,73.7360215 C135.69378,71.7193262 135.832536,71.4421183 139.97799,72.9043978 C144.123445,74.3660394 143.469537,73.9768638 138.016268,71.736871 C132.563636,69.4968781 130.523126,68.7721183 131.894737,69.5625914 C133.266348,70.3530645 136.283254,71.3489713 140.945455,72.5503118 C145.607656,73.7516523 146.195534,74.1874014 142.709091,73.8575591 C139.222648,73.5283548 134.588836,72.182828 128.807656,69.8209785 C123.027113,67.459129 119.944179,66.483638 119.558852,66.8945054 C119.174163,67.3047348 121.233493,68.1220036 125.736842,69.3463118 C130.240829,70.5699821 133.139713,71.6239462 134.433493,72.5082043 C135.727273,73.3931004 134.755981,73.3870394 131.519617,72.4900215 C128.282616,71.5923656 124.393939,70.0691577 119.853589,67.9203978 C115.3126,65.771638 114.059011,64.9483082 116.092823,65.4504086 C118.126635,65.951871 120.925678,67.0591075 124.489952,68.7721183 C128.054864,70.485129 128.794896,71.2299857 126.710048,71.0066882 C124.625199,70.7840287 121.576077,69.5514265 117.562679,67.3088817 C113.548644,65.0663369 112.155024,63.991957 113.381818,64.0857419 C114.607974,64.1795269 116.778628,65.0966416 119.89378,66.837086 C123.008931,68.5781685 125.814673,69.8174695 128.311005,70.5549892 C130.807974,71.292509 133.032855,72.3656129 134.985646,73.7743011 C136.938437,75.1829892 135.994258,75.1108961 132.15311,73.5580215 C128.311324,72.004509 125.486762,71.0363548 123.679426,70.6535591 C121.872089,70.2707634 119.013716,69.2027634 115.104306,67.4495591 C111.195534,65.6957168 109.511324,64.6273978 110.051675,64.2446022 L110.863158,63.6713656" id="STROKE_B9047111-D526-4D3B-B270-01C84F92DCEC" stroke="#9BC1E6" stroke-width="3.85837321"></path>
            <path d="M108.683254,65.412129 C109.23764,63.4860287 110.202233,63.1300287 111.577033,64.344129 C112.952472,65.5575914 113.263477,66.4077168 112.510048,66.8945054 C111.756619,67.3812939 110.528549,66.9784014 108.825837,65.685828 C107.123126,64.3932545 106.516746,63.5568459 107.006699,63.1766022 C107.496013,62.7969964 108.882616,63.4432832 111.166507,65.1154624 C113.450399,66.7882796 117.911962,68.5733835 124.551196,70.4707742 C131.189793,72.3688029 135.90303,73.3509928 138.690909,73.4173441 C141.47815,73.4830573 144.447847,74.2342939 147.6,75.6710538 C150.752153,77.1078136 153.537799,78.1633728 155.956938,78.8377312 C158.376077,79.5114516 159.070175,80.0055771 158.039234,80.3201075 C157.008931,80.634 158.169697,80.9759642 161.521531,81.346 C164.872727,81.7160358 167.82201,80.9520394 170.369378,79.0540108 C172.916746,77.1559821 174.138118,75.7456989 174.033493,74.8231613 C173.928868,73.9012616 172.648485,74.224405 170.192344,75.7925914 C167.736204,77.3614158 168.237959,77.3818315 171.697608,75.8538387 C175.157257,74.3258459 178.226475,72.6913082 180.905263,70.9502258 C183.584689,69.2091434 184.456459,68.258853 183.520574,68.0993548 C182.584689,67.9398566 180.341308,68.975 176.790431,71.2047849 C173.239553,73.4345699 172.20925,74.404 173.699522,74.1130753 C175.189155,73.8215125 178.119936,72.2858638 182.491866,69.506129 L189.049761,65.3355699" id="STROKE_E822C449-C957-4FB3-8F64-6E3356D18EA5" stroke="#9BC1E6" stroke-width="3.85837321"></path>
            <path d="M193.996172,97.2425484 C191.333971,100.303638 189.342265,102.196563 188.021053,102.921323 C186.699841,103.646082 184.72504,104.29843 182.096651,104.878366 C179.468262,105.458939 177.652313,105.584624 176.648804,105.255419 C175.645295,104.925577 177.659011,104.213258 182.689952,103.118462 C187.720255,102.024305 189.931419,101.411194 189.323445,101.279129 C188.71547,101.147065 189.514514,100.593287 191.720574,99.6177957 C193.926635,98.6423047 194.752791,98.7616093 194.199043,99.9757097 C193.644657,101.189172 193.267943,99.8978746 193.0689,96.1018172 C192.869219,92.3057599 192.901116,88.9381147 193.164593,85.9988817 C193.42807,83.0590108 193.282935,82.3986882 192.729187,84.017914 C192.174801,85.6377778 191.752472,88.379871 191.462201,92.2441935 C191.171292,96.1085161 191.309729,97.4932796 191.877512,96.3984839 C192.445295,95.3036882 193.144817,91.9941004 193.976077,86.4697204 C194.806699,80.9459785 195.651037,77.4593477 196.509091,76.009828 C197.367783,74.5603082 197.692185,75.3648172 197.482297,78.4233548 C197.273046,81.4818925 196.310367,86.2674767 194.594258,92.7801075 C192.877512,99.2927384 191.978628,101.532731 191.897608,99.500086 C191.816587,97.4680789 192.271132,95.6880789 193.261244,94.160086 C194.251356,92.6314552 194.600957,93.2914588 194.310048,96.1400968 C194.019777,98.9880968 193.011164,101.12314 191.284211,102.545226 C189.557895,103.966674 186.5563,104.954925 182.279426,105.509978 C178.001914,106.065032 176.086124,106.566814 176.532057,107.015323 C176.97799,107.463832 178.29059,107.140688 180.469856,106.045892 C182.649123,104.951097 181.929506,104.805315 178.311005,105.608548 C174.692504,106.411781 171.827432,107.381211 169.715789,108.516839 C167.604147,109.651828 165.658054,111.201194 163.877512,113.164935 C162.09697,115.128677 162.394258,115.728072 164.769378,114.963118 C167.144498,114.197527 169.342265,112.952165 171.362679,111.227032 C173.383094,109.501262 171.891547,111.425767 166.888038,117.000548 C161.88453,122.57533 160.207018,124.605104 161.855502,123.089871 C163.504625,121.574638 165.670175,119.102735 168.352153,115.674161 C171.034769,112.245588 171.960766,111.236921 171.130144,112.648161 C170.298884,114.059401 167.810526,116.801176 163.665072,120.873484 C159.519617,124.945792 157.458692,126.850201 157.482297,126.58671 C157.505901,126.323219 160.357257,122.811068 166.036364,116.050258 C171.716108,109.289448 174.013716,106.831262 172.929187,108.675699 C171.844657,110.520774 170.285486,112.570964 168.251675,114.826269 C166.217225,117.081573 161.029346,120.212523 152.688038,124.219118 C144.346093,128.225075 139.555343,130.27367 138.315789,130.364903 C137.075598,130.456136 137.649761,129.72372 140.038278,128.167656 C142.426794,126.612229 146.327273,125.010867 151.739713,123.36357 C157.152153,121.716272 157.11866,121.88853 151.639234,123.880344 C146.159171,125.872158 144.983413,126.485269 148.111962,125.719677 C151.24051,124.954724 154.039553,124.434122 156.509091,124.157871 C158.978628,123.88162 159.355343,124.389781 157.639234,125.682355 C155.923126,126.97429 152.919617,128.180416 148.628708,129.300731 C144.337799,130.421047 140.98437,130.901136 138.568421,130.741 C136.15311,130.581502 136.048485,130.351186 138.254545,130.050054 C140.460606,129.748283 143.616268,129.544125 147.721531,129.437581 C151.826156,129.331036 152.650399,129.442685 150.194258,129.772527 C147.738118,130.101731 143.420415,130.378939 137.241148,130.604151 C131.061882,130.83 130.158214,130.237305 134.530144,128.826065 C138.901435,127.414186 138.769378,127.241609 134.133971,128.308333 C129.498565,129.375695 125.841467,130.31833 123.162679,131.136237 C120.483254,131.954781 118.430622,132.852118 117.004785,133.828247 C115.578947,134.803738 117.678788,134.130656 123.304306,131.809 C128.929825,129.487982 130.382775,129.092746 127.663158,130.62329 C124.942903,132.153835 121.303987,134.70453 116.746411,138.275376 C112.188836,141.845584 111.099203,142.945165 113.477512,141.574118 C115.856459,140.20371 117.9563,138.490699 119.777033,136.435086 C121.598405,134.380111 120.944817,134.624781 117.816268,137.169097 C114.687719,139.713412 111.407018,142.185315 107.974163,144.584806 C104.541308,146.984935 102.237002,148.763978 101.061244,149.921935 C99.8854864,151.079892 105.193301,148.304943 116.984689,141.597086 C128.776077,134.889867 130.070175,133.394731 120.866986,137.111677 C111.663796,140.829262 104.580542,144.230082 99.6172249,147.31414 C94.6539075,150.398197 93.8092504,151.036828 97.0832536,149.230032 C100.357257,147.423237 103.05008,145.788699 105.161722,144.326419 C107.273365,142.86414 108.830941,141.565505 109.83445,140.430516 C110.837321,139.294889 107.933333,141.798373 101.122488,147.940968 C94.3110048,154.083563 89.9406699,158.342165 88.0114833,160.716774 C86.0822967,163.091384 86.4051037,163.401767 88.9799043,161.647925 C91.554067,159.89472 93.6995215,158.200849 95.4162679,156.566312 C97.1323764,154.931774 99.1138756,152.618093 101.360766,149.625269 C103.607656,146.632444 104.749601,144.826925 104.786603,144.20871 C104.823604,143.590495 103.529506,144.80938 100.904306,147.865366 C98.2791069,150.921351 94.6169059,154.27528 89.9177033,157.927151 C85.2178628,161.578384 84.4389155,162.461366 87.5808612,160.576097 C90.723445,158.690828 93.9636364,156.496452 97.3014354,153.992968 C100.639234,151.488846 102.875917,150.045706 104.011483,149.663548 C105.146411,149.280753 104.896332,149.781258 103.261244,151.165065 C101.626156,152.548233 99.7052632,153.859627 97.4985646,155.099247 C95.292504,156.338229 92.4277512,157.531595 88.9043062,158.679344 C85.3802233,159.827093 83.4322169,160.249125 83.0602871,159.945441 C82.6889952,159.641118 84.3464115,158.138326 88.0325359,155.437065 C91.7180223,152.735803 92.2264753,152.597677 89.5578947,155.022688 C86.8886762,157.447699 84.1215311,159.358487 81.2564593,160.755054 C78.3913876,162.150982 77.2561404,162.395333 77.8507177,161.488108 C78.4452951,160.580882 76.815311,161.984785 72.9607656,165.699817 C69.1055821,169.414849 67.7068581,170.983355 68.7645933,170.405333 C69.8216906,169.82795 70.9247209,168.299957 72.0736842,165.821355 C73.2220096,163.343391 73.0564593,163.270022 71.5770335,165.601247 C70.0969697,167.932473 69.6931419,169.03971 70.3655502,168.922957 L71.3741627,168.748785" id="STROKE_D6972D1B-56D1-4379-B57C-324CFEB52D0A" stroke="#DEDDD5" stroke-width="3.86028708"></path>
            <path d="M65.4344498,168.900946 C63.6437002,167.739799 61.0389155,166.448502 57.6200957,165.027054 C54.200638,163.605606 54.5958533,164.08091 58.8057416,166.452968 C63.01563,168.824387 64.7572568,169.99 64.030622,169.949806 C63.3046252,169.908975 61.4229665,169.249928 58.3856459,167.972667 C55.3483254,166.696043 55.8430622,167.066079 59.8698565,169.082774 C63.8972887,171.100108 62.8484848,170.842996 56.723445,168.311441 C50.5977671,165.779885 49.0791069,165.430265 52.1674641,167.262581 C55.2551834,169.094258 56.5945774,170.010097 56.1856459,170.010097 C55.7767145,170.010097 52.661563,168.725498 46.8401914,166.156301 C41.0194577,163.586466 38.953748,162.748781 40.6430622,163.643247 C42.3323764,164.538351 44.0889952,165.658667 45.9129187,167.004194 C47.7374801,168.34972 48.339075,169.034925 47.7177033,169.059806 C47.0956938,169.085326 44.8893142,168.307613 41.0985646,166.726667 C37.307815,165.145082 37.2810207,165.527559 41.0181818,167.874097 C44.7547049,170.220634 46.3524721,171.440796 45.8114833,171.534581 C45.2711324,171.628366 43.9588517,171.187513 41.8746411,170.212022 C39.7897927,169.23653 38.4433812,168.365989 37.8354067,167.600398 C37.2267943,166.835444 37.9259968,167.052043 39.9330144,168.250194 C41.9400319,169.448982 42.2172249,169.739269 40.7645933,169.121054 C39.3113238,168.502839 37.8650718,167.699606 36.4258373,166.711355 C34.9866029,165.723104 34.523764,165.182086 35.0373206,165.088301 C35.5508772,164.994516 37.3738437,165.599971 40.5062201,166.904667 C43.6379585,168.21 45.0905901,168.553559 44.8641148,167.935344 C44.6376396,167.317129 42.6832536,165.992975 39.0009569,163.962882 C35.3180223,161.933427 32.645614,160.266032 30.9837321,158.960699 C29.3212121,157.655366 29.3735247,157.437491 31.1406699,158.307075 C32.907815,159.176022 36.1342903,161.179 40.8200957,164.316011 C45.5059011,167.453659 47.691866,169.002068 47.3779904,168.961237 C47.0634769,168.921043 44.5566188,167.484283 39.8574163,164.650957 C35.1575758,161.817631 30.4242424,158.634685 25.6574163,155.102118 C20.8899522,151.57019 20.2293461,150.86457 23.6755981,152.985258 C27.1218501,155.106584 30.0392344,157.064265 32.4277512,158.858301 C34.8162679,160.652337 35.8586922,161.588591 35.5550239,161.667065 C35.2507177,161.745538 33.7317384,160.955065 30.9980861,159.295645 C28.2650718,157.635588 25.3814992,155.731179 22.3473684,153.582419 C19.3138756,151.433659 20.0995215,151.643878 24.7043062,154.213075 C29.3090909,156.78291 32.8532695,158.614907 35.3368421,159.709065 C37.8197767,160.80386 37.8602871,160.573545 35.4583732,159.018118 C33.0564593,157.462054 30.2251994,155.899609 26.9645933,154.330785 C23.7039872,152.762599 19.9470494,151.048312 15.6937799,149.187925 C11.4398724,147.328176 12.1984051,147.795824 17.969378,150.590871 C23.7397129,153.385918 26.4526316,154.797477 26.108134,154.825548 C25.7636364,154.852982 24.2245614,154.299204 21.4909091,153.164215 C18.7578947,152.028588 16.3489633,151.104774 14.2641148,150.392774 C12.1799043,149.680774 11.3167464,149.820176 11.6746411,150.810978 C12.0331738,151.801781 11.9470494,152.303563 11.4162679,152.316323 C10.8861244,152.329082 9.49920255,151.656319 7.25550239,150.298032 C5.01244019,148.939746 3.82488038,148.056763 3.69282297,147.649086 C3.56140351,147.240771 5.0937799,147.932355 8.28995215,149.723839 C11.4854864,151.515323 12.1575758,152.022208 10.3062201,151.244495 C8.45486443,150.466781 8.14417863,149.913004 9.37416268,149.583161 C10.6041467,149.253957 10.6717703,148.673703 9.57703349,147.842398 C8.48229665,147.011093 7.94673046,146.430839 7.97033493,146.101634 C7.99393939,145.77243 9.04976077,146.148846 11.137799,147.230882 C13.2258373,148.312918 13.1346093,148.069523 10.8641148,146.500699 C8.59362041,144.931875 8.87049442,144.70762 11.6947368,145.827935 C14.5196172,146.948251 14.8035088,147.172505 12.5464115,146.500699 C10.2893142,145.828892 10.4009569,145.974674 12.8813397,146.938043 C15.3610845,147.900774 17.7901116,149.11328 20.1684211,150.575559 C22.5467305,152.037839 23.5773525,152.762599 23.2602871,152.749839 C22.9425837,152.737079 21.3444976,152.045176 18.4660287,150.674129 C15.5875598,149.303082 14.1279107,148.347688 14.0870813,147.807946 C14.04689,147.268204 14.8526316,147.241728 16.5043062,147.728516 C18.1566188,148.215305 19.9524721,148.979301 21.891866,150.020505 C23.83126,151.06171 24.6098884,151.621867 24.2277512,151.700978 C23.846252,151.779452 21.939075,151.015455 18.5062201,149.408989 C15.0733652,147.801885 13.1913876,146.766423 12.8602871,146.302602 C12.5291866,145.839419 13.1358852,145.911832 14.6803828,146.519839 C16.2242424,147.127846 19.4794258,148.630638 24.445933,151.028215 C29.4124402,153.425154 31.1100478,154.301756 29.538756,153.658022 C27.9681021,153.014287 25.861563,152.283147 23.2191388,151.464602 C20.5773525,150.646057 19.3291866,150.045706 19.4746411,149.663548 C19.6194577,149.280753 21.2038278,149.492247 24.2277512,150.298032 C27.2516746,151.103817 28.8092504,151.750104 28.9004785,152.236892 C28.9917065,152.723043 31.4733652,154.633513 36.3454545,157.968301 C41.2169059,161.30309 42.1814992,162.186391 39.2392344,160.618204 C36.2963317,159.04938 34.323126,157.791258 33.3196172,156.843839 C32.3161085,155.895781 34.2232855,156.80524 39.0411483,159.572215 C43.8590112,162.339828 44.7170654,162.906366 41.615311,161.271828 C38.5141946,159.63729 38.6934609,159.571258 42.15311,161.073731 C45.6127592,162.576842 48.2057416,163.559032 49.9320574,164.020301 C51.6583732,164.48157 53.354386,164.724645 55.0200957,164.749527 C56.6858054,164.775047 55.9610845,164.478699 52.845933,163.860484 C49.7307815,163.242269 49.9014354,163.690778 53.3578947,165.206011 C56.8143541,166.721244 57.6724083,167.215369 55.9320574,166.688387 C54.1923445,166.161405 54.523445,165.864738 56.9253589,165.798387 C59.3279107,165.732674 60.2318979,165.969688 59.6373206,166.50943 C59.0427432,167.049172 59.5307815,167.312663 61.1014354,167.299903 L63.4583732,167.28172" id="STROKE_A30D19CB-812C-472D-8C68-9B6FB68A722F" stroke="#DEDDD5" stroke-width="3.85837321"></path>
            <path d="M194.759809,65.413086 C192.549282,66.0491649 189.719617,67.3280215 186.270813,69.2496559 C182.82201,71.1712903 178.895375,73.8786129 174.490909,77.3716237 C170.087081,80.8646344 166.537799,82.7026918 163.843062,82.8857957 C161.148325,83.0688996 158.663477,83.0271111 156.388517,82.7604301 C154.113557,82.4937491 152.1126,81.9587921 150.385646,81.1555591 C148.65933,80.3516882 145.570654,79.4824229 141.119617,78.5477634 C136.667943,77.6124659 130.757576,76.0586344 123.388517,73.8862688 C116.020096,71.7139032 110.872727,69.7826989 107.946411,68.0926559 C105.020096,66.4026129 103.480064,64.9310824 103.326316,63.6780645 C103.17193,62.4244086 103.47177,61.3382258 104.225837,60.4195161 C104.979904,59.5001685 107.164912,58.8156022 110.780861,58.3658172 C114.396172,57.9160323 119.352791,56.7127778 125.650718,54.7560538 C131.948644,52.7986918 136.301435,51.6531756 138.709091,51.3195054 C141.116746,50.9851971 146.607018,51.8541434 155.179904,53.9263441 C163.752791,55.9991828 171.269537,57.6043728 177.730144,58.741914 C184.19075,59.8794552 189.079107,61.0492151 192.395215,62.2511935 C195.711324,63.4525341 197.326316,64.3039355 197.240191,64.8053978 C197.154705,65.3068602 196.075279,65.682957 194.001914,65.9336882 C191.927911,66.1844194 190.413397,66.6437742 189.458373,67.3117527 L188.02488,68.3146774" id="STROKE_195FA776-A895-497B-BB1A-6F37C63EAAC7" stroke="#000000" stroke-width="1.95502392"></path>
            <path d="M197.613397,70.9751075 C195.136842,71.6111864 190.124083,74.3022401 182.57512,79.0482688 C175.026794,83.7949355 167.083892,88.4497312 158.746411,93.0126559 C150.409569,97.5755806 142.558852,102.197839 135.194258,106.87943 C127.829665,111.561022 121.133333,115.489462 115.105263,118.664753 C109.077193,121.839405 101.333333,126.276964 91.8736842,131.97743 C82.414673,137.677896 75.38437,140.653495 70.7827751,140.904226 C66.1818182,141.154957 62.96874,141.07138 61.1435407,140.653495 C59.3183413,140.235609 55.9617225,138.839362 51.0736842,136.464753 C46.185008,134.090143 42.4427432,132.476978 39.84689,131.625258 C37.2503987,130.774176 32.8545455,128.568315 26.6593301,125.007677 C20.4647528,121.447039 14.830941,118.648165 9.75789474,116.611054 C4.68548644,114.573943 2.06570973,112.927283 1.89856459,111.671075 C1.73141946,110.414229 2.80255183,108.775226 5.11196172,106.754065 C7.42137161,104.732903 12.1253589,102.209004 19.2239234,99.1823656 C26.323126,96.1550896 31.3636364,94.157853 34.3454545,93.1906559 C37.3272727,92.2234588 41.0523126,90.6699462 45.5205742,88.5301183 C49.9894737,86.3896523 55.8912281,83.9490108 63.2258373,81.2081935 C70.5604466,78.4673763 76.4105263,76.0525735 80.7760766,73.9637849 C85.1416268,71.8749964 89.9869219,69.8602151 95.3119617,67.9194409 L103.300478,65.0082796" id="STROKE_C1DCA0FB-3C78-4574-AD38-E80C3246D419" stroke="#000000" stroke-width="1.94449761"></path>
            <path d="M197.219139,70.9530968 C198.666667,70.0516129 199.343541,69.3648136 199.249761,68.8926989 C199.155981,68.4199462 198.54673,67.8945591 197.42201,67.3165376 L195.733971,66.4495054" id="STROKE_F9E650B0-BBBF-4B31-8D06-E2DC3290D964" stroke="#000000" stroke-width="1.95502392"></path>
            <path d="M153.543541,1.4507957 C159.931419,17.2608961 169.124721,32.3542115 181.123445,46.7307419 L199.121531,68.2964946" id="STROKE_12521463-4952-48CC-93AE-3786A3592AA4" stroke="#000000" stroke-width="1.95502392"></path>
            <path d="M152.770335,0.770376344 C137.18437,17.5999892 123.27177,30.261914 111.032536,38.7561505 C98.7933014,47.2497491 83.2507177,56.6374946 64.4047847,66.9193871 C45.5594896,77.2012796 30.4127592,86.5577634 18.9645933,94.9888387 L1.79138756,107.636409" id="STROKE_939F8437-065D-4B6F-A4E3-8CB67AACE77A" stroke="#000000" stroke-width="1.95502392"></path>
            <path d="M2.37129187,107.611527 C0.493141946,121.441297 0.287719298,132.213168 1.75502392,139.92714 L3.95502392,151.498097" id="STROKE_5D1AA6F0-B2E5-49CD-B62E-105D3D44AD4B" stroke="#000000" stroke-width="1.95502392"></path>
            <path d="M151.8,2.69201075 C143.460606,16.9804982 137.029984,26.1012437 132.508134,30.0542473 L125.724402,35.9837527" id="STROKE_1EFE7324-8170-468D-86DB-1951429A6F10" stroke="#000000" stroke-width="1.76172249"></path>
            <path d="M152.507177,3.50545161 C151.806699,8.67829749 151.960766,13.0702401 152.969378,16.6812796 C153.97799,20.292319 156.11547,25.4728208 159.381818,32.2227849 L164.28134,42.3477312" id="STROKE_8D4C242F-CEB4-42FB-9A6D-383B113CA771" stroke="#000000" stroke-width="1.95502392"></path>
            <path d="M152.507177,4.87490323 C151.244657,8.92615771 150.433812,13.619871 150.074641,18.956043 C149.714833,24.2922151 149.969697,28.9763584 150.839234,33.0084731 L152.143541,39.0566452" id="STROKE_B1E0F49A-1393-49BE-8C04-54CFEE9B4373" stroke="#000000" stroke-width="1.75789474"></path>
            <path d="M151.456459,2.92934409 C148.841467,12.9209498 146.998086,19.0568459 145.926316,21.3370323 L144.31866,24.7563548" id="STROKE_CD26078E-2B63-40B1-9FBC-0E390C501E9A" stroke="#000000" stroke-width="1.32440191"></path>
            <path d="M37.6660287,106.428688 C34.5208931,111.614932 31.5307815,117.81048 28.6956938,125.015333 L24.4430622,135.822613" id="STROKE_E3B35EC7-E271-48C0-A624-3F71E38C0CF2" stroke="#000000" stroke-width="1.95502392"></path>
            <path d="M45.5645933,114.602333 C42.4558214,123.963602 40.3834131,129.796771 39.3473684,132.101839 L37.7942584,135.559441" id="STROKE_5E50CB4A-E6B0-49F7-AF3D-27339DAEC9E3" stroke="#000000" stroke-width="1.76363636"></path>
            <path d="M100.869856,79.3190968 C96.354386,106.382753 91.015311,123.429602 84.8526316,130.459645 L75.6095694,141.003753" id="STROKE_88B4AC25-444F-4848-AD54-C9CD7E5573A0" stroke="#000000" stroke-width="1.62200957"></path>
            <path d="M135.416268,80.1832581 C132.4689,104.480577 130.486443,118.715154 129.4689,122.886989 L127.941627,129.144742" id="STROKE_2452CB44-B9C3-4B11-A8DB-3941D5BBDB32" stroke="#000000" stroke-width="1.34641148"></path>
            <path d="M162.94067,62.1976022 C162.747368,66.6157025 163.511005,74.6186846 165.231579,86.2065484 L167.81244,103.587387" id="STROKE_AF7CC425-196B-4B88-A1CA-F23C0A90DB90" stroke="#000000" stroke-width="1.90239234"></path>
            <path d="M89.5942584,104.295559 C87.2082935,111.166742 85.2606061,116.018358 83.7511962,118.850409 C82.2417863,121.683097 80.44689,124.365857 78.3665072,126.898688 L75.245933,130.696978" id="STROKE_1E58BC00-7688-4026-B79A-66FEB313976E" stroke="#000000" stroke-width="1.21052632"></path>
            <path d="M197.095694,66.6160215 C198.497927,68.9982867 199.361722,73.0431613 199.687081,78.7506452 C200.013078,84.457491 199.474003,90.3302151 198.069856,96.3688172 L195.963636,105.427677" id="STROKE_E5436928-96BB-4D1D-BFA8-1523843DFCC2" stroke="#000000" stroke-width="1.8277512"></path>
            <path d="M194.669856,105.321452 C189.228708,105.988792 184.879426,106.957584 181.62201,108.227828 C178.364593,109.498072 175.538437,111.759437 173.143541,115.011925 C170.749282,118.263774 168.23445,121.252771 165.599043,123.978914 C162.963636,126.705057 159.632217,128.992262 155.604785,130.840527 C151.576715,132.68943 146.182775,133.868122 139.422967,134.376602 C132.663158,134.88572 128.404785,135.521799 126.647847,136.284839 C124.890909,137.048516 121.665072,138.919749 116.970335,141.898538 C112.27496,144.877326 107.372887,149.09733 102.264115,154.558548 C97.1559809,160.019767 93.6401914,163.088194 91.7167464,163.763828 C89.7939394,164.439462 88.0688995,164.597047 86.5416268,164.236581 C85.0137161,163.875477 81.7122807,165.417824 76.6373206,168.863624 L69.0248804,174.032323" id="STROKE_DFC714CB-29FC-4EE3-8132-A7E32A90CC22" stroke="#000000" stroke-width="1.95502392"></path>
            <path d="M4.71674641,152.968989 C5.98373206,152.651907 8.94354067,152.805344 13.5961722,153.429301 C18.2488038,154.05262 22.1285486,155.380921 25.2354067,157.414204 C28.3422648,159.448125 30.8874003,161.713638 32.8708134,164.210742 C34.8548644,166.707846 36.8162679,168.60109 38.7550239,169.890473 C40.6937799,171.179219 42.923445,171.968416 45.4440191,172.258065 C47.9645933,172.548351 49.8133971,172.429685 50.9904306,171.902065 C52.1674641,171.374444 54.4274322,171.124351 57.7703349,171.151785 C61.1132376,171.178581 63.8382775,172.213086 65.9454545,174.255301 L69.1062201,177.318624" id="STROKE_EB949AF3-A572-4391-8F11-88CD30822611" stroke="#000000" stroke-width="1.95502392"></path>
            <path d="M69.1062201,176.767398 C68.6341308,175.311498 68.1521531,172.879151 67.6602871,169.470355 C67.1684211,166.061559 67.0191388,162.033591 67.2124402,157.386452 L67.5023923,150.415742" id="STROKE_1BBC804B-D400-4F01-9008-4AE83327665B" stroke="#000000" stroke-width="1.95502392"></path>
            <path d="M87.2287081,143.030656 C85.6293461,144.415738 84.2848485,145.857283 83.1952153,147.35529 C82.1055821,148.853297 81.1438596,150.316853 80.3100478,151.745957 L79.0602871,153.888656" id="STROKE_5AC79DB9-CC40-4500-8BC8-CF6856A3EE35" stroke="#000000" stroke-width="1.58181818"></path>
            <path d="M134.257416,123.099441 C134.243381,124.342889 133.972568,125.801978 133.444976,127.47671 L132.652632,129.988806" id="STROKE_B3C7B5CF-A952-4C84-918D-5F0AFFE9177B" stroke="#000000" stroke-width="1.95502392"></path>
            <path d="M87.3023923,69.9827097 C89.2704944,66.4239857 90.908453,63.7112401 92.2162679,61.8444731 C93.523445,59.9770681 94.4848485,58.5304194 95.1004785,57.5045269 L96.0239234,55.9656882" id="STROKE_67507619-3B7A-40FE-8AF0-14319D7866F0" stroke="#000000" stroke-width="1.8277512"></path>
            <path d="M68.6076555,78.0807527 L68.2363636,79.0004194" id="STROKE_728C1C33-2269-4473-B35B-B444095151EB" stroke="#000000" stroke-width="1.95502392"></path>
            <path d="M68.3444976,79.4205376 C68.537799,79.4205376 68.8535885,78.8205054 69.291866,77.6204409 C69.7295056,76.4210143 70.2382775,75.1549176 70.8181818,73.8221505 C71.3974482,72.4893835 71.9062201,71.3888459 72.3444976,70.5205376 L73.0019139,69.2190323" id="STROKE_534A9E31-639C-484F-8025-E5DD0349BA73" stroke="#000000" stroke-width="1.95502392"></path>
            <path d="M151.226794,3.42889247 C152.36555,5.44877778 153.193939,7.33915054 153.711962,9.10001075 C154.229984,10.860233 155.058054,13.0504624 156.196172,15.6706989 C157.334928,18.2909355 158.548006,20.9025591 159.835407,23.5055699 L161.766507,27.409129" id="STROKE_4129DD38-F916-494A-92A4-22C58F2A9E50" stroke="#000000" stroke-width="1.95502392"></path>
        </g>
    </g>
</svg>